<svg width="232" height="76" viewBox="0 0 232 76" fill="none" xmlns="http://www.w3.org/2000/svg">
<rect width="232" height="76" rx="7" fill="#4F82B0"/>
<path d="M55.3379 44.4615H53.6416V33.0533H47.3311V44.4615H45.6436V31.6647H55.3379V44.4615ZM68.2578 38.4762C68.2578 39.7301 68.0469 40.8258 67.625 41.7633C67.2031 42.6949 66.6055 43.4068 65.832 43.899C65.0586 44.3912 64.1563 44.6373 63.125 44.6373C62.1172 44.6373 61.2236 44.3912 60.4443 43.899C59.665 43.401 59.0586 42.6949 58.625 41.7809C58.1973 40.8609 57.9775 39.7975 57.9658 38.5904V37.6676C57.9658 36.4371 58.1797 35.3502 58.6074 34.4068C59.0352 33.4635 59.6387 32.7428 60.418 32.2447C61.2031 31.7408 62.0996 31.4889 63.1074 31.4889C64.1328 31.4889 65.0352 31.7379 65.8145 32.2359C66.5996 32.7281 67.2031 33.4459 67.625 34.3893C68.0469 35.3268 68.2578 36.4195 68.2578 37.6676V38.4762ZM66.5791 37.65C66.5791 36.1324 66.2744 34.9693 65.665 34.1608C65.0557 33.3463 64.2031 32.9391 63.1074 32.9391C62.041 32.9391 61.2002 33.3463 60.585 34.1608C59.9756 34.9693 59.6621 36.0943 59.6445 37.5358V38.4762C59.6445 39.9469 59.9522 41.1041 60.5674 41.9479C61.1885 42.7858 62.041 43.2047 63.125 43.2047C64.2149 43.2047 65.0586 42.8092 65.6563 42.0182C66.2539 41.2213 66.5615 40.0816 66.5791 38.5992V37.65ZM82.0039 47.5992H80.3252V44.4615H71.1406V47.608H69.4531L69.4443 43.0816H70.4902C71.041 42.4606 71.4775 41.6285 71.7998 40.5856C72.1279 39.5367 72.333 38.3883 72.415 37.1402L72.6963 31.6647H80.3516V43.0816H82.0215L82.0039 47.5992ZM72.415 43.0816H78.6553V33.0533H74.3223L74.1377 36.815C74.0615 38.2858 73.8652 39.5397 73.5488 40.5768C73.2383 41.6139 72.8604 42.4488 72.415 43.0816ZM91.2324 41.1217H85.8711L84.667 44.4615H82.9268L87.8135 31.6647H89.29L94.1856 44.4615H92.4541L91.2324 41.1217ZM86.3809 39.733H90.7315L88.5518 33.7477L86.3809 39.733ZM103.607 33.0533H99.4941V44.4615H97.8154V33.0533H93.7109V31.6647H103.607V33.0533ZM107.281 36.8854H110.463C111.799 36.9029 112.842 37.2457 113.592 37.9137C114.342 38.5816 114.717 39.4899 114.717 40.6383C114.717 41.7926 114.339 42.7125 113.583 43.3981C112.827 44.0836 111.796 44.4381 110.489 44.4615H105.594V31.6647H107.281V36.8854ZM107.281 38.274V43.0816H110.366C111.204 43.0816 111.854 42.859 112.317 42.4137C112.786 41.9684 113.021 41.3707 113.021 40.6207C113.021 39.9 112.795 39.3316 112.344 38.9156C111.898 38.4996 111.263 38.2858 110.437 38.274H107.281ZM127.979 35.1012C127.979 34.4215 127.73 33.8824 127.232 33.484C126.74 33.0797 126.046 32.8775 125.149 32.8775C124.399 32.8775 123.77 33.0856 123.26 33.5016C122.756 33.9117 122.504 34.4215 122.504 35.0309H120.816C120.816 34.3512 121.001 33.7418 121.37 33.2027C121.745 32.6637 122.267 32.2447 122.935 31.9459C123.603 31.6412 124.341 31.4889 125.149 31.4889C126.579 31.4889 127.689 31.8111 128.48 32.4557C129.271 33.0943 129.667 33.985 129.667 35.1275C129.667 35.7193 129.485 36.2584 129.122 36.7447C128.759 37.2311 128.252 37.6149 127.602 37.8961C129.107 38.4 129.86 39.399 129.86 40.8932C129.86 42.0416 129.433 42.9527 128.577 43.6266C127.722 44.3004 126.579 44.6373 125.149 44.6373C124.3 44.6373 123.526 44.4879 122.829 44.1891C122.138 43.8844 121.599 43.4537 121.212 42.8971C120.825 42.3404 120.632 41.6783 120.632 40.9108H122.319C122.319 41.5846 122.586 42.1471 123.119 42.5983C123.652 43.0436 124.329 43.2662 125.149 43.2662C126.069 43.2662 126.802 43.0524 127.347 42.6246C127.897 42.1969 128.173 41.6315 128.173 40.9283C128.173 39.4283 127.244 38.6637 125.387 38.6344H123.805V37.2457H125.378C126.233 37.2281 126.881 37.0348 127.32 36.6656C127.76 36.2965 127.979 35.775 127.979 35.1012ZM139.168 41.1217H133.807L132.603 44.4615H130.862L135.749 31.6647H137.226L142.121 44.4615H140.39L139.168 41.1217ZM134.316 39.733H138.667L136.487 33.7477L134.316 39.733ZM150.541 44.4615V39.4781H147.588L144.942 44.4615H143.141L146.111 39.0123C144.459 38.3619 143.633 37.1988 143.633 35.5231C143.633 34.3043 144.031 33.358 144.828 32.6842C145.631 32.0045 146.744 31.6647 148.168 31.6647H152.237V44.4615H150.541ZM145.32 35.5231C145.32 36.2965 145.561 36.9176 146.041 37.3863C146.527 37.8551 147.201 38.0924 148.063 38.0983H150.541V33.0533H148.142C147.228 33.0533 146.527 33.2701 146.041 33.7037C145.561 34.1373 145.32 34.7438 145.32 35.5231ZM155.305 44.4615V31.6647H159.488C160.877 31.6647 161.92 31.9518 162.617 32.526C163.32 33.1002 163.672 33.9498 163.672 35.0748C163.672 35.6725 163.502 36.2027 163.162 36.6656C162.822 37.1227 162.359 37.4772 161.773 37.7291C162.465 37.9225 163.01 38.2916 163.408 38.8365C163.813 39.3756 164.015 40.0201 164.015 40.7701C164.015 41.9186 163.643 42.8209 162.898 43.4772C162.154 44.1334 161.103 44.4615 159.743 44.4615H155.305ZM156.992 38.4762V43.0816H159.778C160.563 43.0816 161.182 42.8795 161.633 42.4752C162.09 42.065 162.318 41.5025 162.318 40.7877C162.318 39.2467 161.48 38.4762 159.805 38.4762H156.992ZM156.992 37.1227H159.541C160.279 37.1227 160.868 36.9381 161.308 36.569C161.753 36.1998 161.976 35.6988 161.976 35.066C161.976 34.3629 161.771 33.8531 161.36 33.5367C160.95 33.2145 160.326 33.0533 159.488 33.0533H156.992V37.1227ZM169.842 38.7135H168.286V44.4615H166.599V31.6647H168.286V37.3072H169.604L174.078 31.6647H176.179L171.292 37.8697L176.539 44.4615H174.474L169.842 38.7135ZM182.48 39.0914L185.425 31.6647H187.385L182.858 42.3258C182.554 43.0055 182.27 43.4889 182.006 43.776C181.742 44.0572 181.432 44.274 181.074 44.4264C180.723 44.5729 180.28 44.6461 179.747 44.6461C179.284 44.6461 178.988 44.6197 178.859 44.567L178.912 43.2311L179.712 43.2662C180.327 43.2662 180.784 42.9703 181.083 42.3785L181.303 41.9215L181.637 41.1393L177.277 31.6647H179.167L182.48 39.0914Z" fill="white"/>
</svg>

